<svg width="31" height="20" viewBox="0 0 31 20" fill="none" xmlns="http://www.w3.org/2000/svg">
<path d="M8.7045 0.305664C9.588 0.305664 10.383 0.382164 11.112 0.538164C11.8365 0.692664 12.4545 0.947664 12.9765 1.30016C13.491 1.65266 13.893 2.12066 14.1825 2.70866C14.463 3.28916 14.6025 4.01516 14.6025 4.87316C14.6025 5.80316 14.3925 6.58016 13.971 7.19966C13.5465 7.82066 12.921 8.32916 12.087 8.72216C13.2225 9.05066 14.064 9.62516 14.622 10.4412C15.183 11.2647 15.4575 12.2502 15.4575 13.4052C15.4575 14.3427 15.279 15.1482 14.9205 15.8247C14.575 16.4911 14.0738 17.0643 13.4595 17.4957C12.8232 17.9388 12.1124 18.264 11.361 18.4557C10.5732 18.6625 9.76197 18.7663 8.9475 18.7647H0V0.305664H8.7045ZM8.178 7.76366C8.898 7.76366 9.495 7.59266 9.966 7.24616C10.434 6.90416 10.6605 6.34016 10.6605 5.56766C10.6605 5.13866 10.584 4.78466 10.434 4.50716C10.2879 4.24019 10.0716 4.01821 9.8085 3.86516C9.53315 3.70186 9.22925 3.59241 8.913 3.54266C8.56829 3.47837 8.21814 3.44773 7.8675 3.45116H4.065V7.76366H8.178ZM8.4045 15.6222C8.805 15.6222 9.186 15.5877 9.5445 15.5067C9.906 15.4287 10.227 15.3027 10.5 15.1152C10.773 14.9352 10.998 14.6907 11.16 14.3787C11.3235 14.0697 11.403 13.6662 11.403 13.1817C11.403 12.2307 11.1345 11.5542 10.6035 11.1447C10.071 10.7397 9.357 10.5387 8.4825 10.5387H4.065V15.6237H8.4045V15.6222ZM21.252 15.5607C21.8025 16.0977 22.596 16.3677 23.628 16.3677C24.3675 16.3677 25.0065 16.1802 25.545 15.8082C26.076 15.4347 26.4 15.0357 26.5245 14.6232H29.757C29.238 16.2312 28.4505 17.3802 27.3735 18.0717C26.31 18.7662 25.0155 19.1112 23.5035 19.1112C22.4505 19.1112 21.5025 18.9417 20.6535 18.6057C19.8386 18.2883 19.1022 17.798 18.495 17.1687C17.8978 16.5246 17.4362 15.7671 17.1375 14.9412C16.8092 14.0278 16.6466 13.0632 16.6575 12.0927C16.6575 11.0937 16.824 10.1592 17.151 9.29667C17.4614 8.46294 17.9381 7.70101 18.552 7.05716C19.1595 6.42716 19.8795 5.93066 20.718 5.56616C21.5997 5.19533 22.5485 5.01047 23.505 5.02316C24.636 5.02316 25.6245 5.24216 26.4735 5.68316C27.2968 6.10413 28.0107 6.71119 28.5585 7.45616C29.103 8.19566 29.4915 9.04316 29.733 9.99266C29.9745 10.9407 30.0585 11.9307 29.9895 12.9672H20.343C20.3445 14.0232 20.7 15.0237 21.252 15.5607ZM25.47 8.53916C25.0335 8.05616 24.2955 7.79516 23.3925 7.79516C22.806 7.79516 22.3215 7.89266 21.9315 8.09366C21.5749 8.27377 21.2585 8.52432 21.0015 8.83016C20.7758 9.10784 20.6084 9.42825 20.5095 9.77216C20.423 10.0589 20.3672 10.3541 20.343 10.6527H26.316C26.229 9.71666 25.908 9.02516 25.47 8.53916ZM19.593 1.54466H27.0765V3.36716H19.593V1.54466Z" fill="black"/>
</svg>
