<svg width="30" height="31" viewBox="0 0 30 31" fill="none" xmlns="http://www.w3.org/2000/svg">
<path d="M27.99 8.17898C26.6811 5.91057 24.7973 4.0273 22.5285 2.71898C20.229 1.37948 17.7195 0.708984 15 0.708984C12.2805 0.708984 9.771 1.37948 7.47 2.71898C5.1705 4.05848 3.3495 5.87948 2.01 8.17898C0.6705 10.4785 0 12.9895 0 15.709C0 18.4285 0.669 20.9395 2.01 23.239C3.31848 25.5077 5.20238 27.3911 7.4715 28.699C9.771 30.0385 12.2805 30.709 15 30.709C17.7195 30.709 20.229 30.0385 22.53 28.699C24.7988 27.3907 26.6826 25.5074 27.9915 23.239C29.331 20.9395 30 18.4285 30 15.709C30 12.9895 29.331 10.4785 27.99 8.17898ZM15 3.19898C18 3.19898 20.658 4.15898 22.98 6.07748C21.6 7.83848 19.551 9.28748 16.83 10.4275C15.327 7.70798 13.698 5.43698 11.9385 3.61748C12.9357 3.34176 13.9654 3.201 15 3.19898ZM5.265 7.90898C6.36186 6.51613 7.7497 5.37964 9.3315 4.57898C11.1495 6.38048 12.819 8.62898 14.3415 11.329C11.3415 12.229 8.1705 12.679 4.83 12.679C3.9705 12.679 3.321 12.6595 2.88 12.619C3.33971 10.9006 4.15192 9.29657 5.265 7.90898ZM2.49 15.709C2.49 15.628 2.4945 15.529 2.505 15.409C2.5155 15.289 2.52 15.19 2.52 15.109C2.901 15.13 3.4815 15.139 4.2615 15.139C8.2605 15.139 11.9805 14.5885 15.42 13.489C15.7005 14.0485 15.9915 14.6785 16.29 15.379C14.31 15.8185 12.279 16.888 10.1985 18.589C8.118 20.29 6.6 22.0795 5.64 23.959C3.54 21.5785 2.49 18.829 2.49 15.709ZM15 28.219C12.159 28.219 9.609 27.3385 7.3485 25.5805C8.25 23.8 9.6345 22.0975 11.505 20.479C13.374 18.859 15.2295 17.8495 17.07 17.449C18.231 20.6575 19.0162 23.9897 19.41 27.379C18.0043 27.9283 16.5092 28.2131 15 28.219ZM25.62 22.279C24.6382 23.8608 23.3161 25.2039 21.75 26.2105C21.39 23.0905 20.7 20.05 19.6815 17.089C21.0795 16.99 22.329 16.939 23.4315 16.939C24.63 16.939 25.9605 16.99 27.42 17.089C27.2242 18.9337 26.6084 20.7091 25.62 22.279ZM23.76 14.779C22.02 14.779 20.4105 14.8495 18.93 14.989C18.6164 14.1682 18.2762 13.3577 17.91 12.559C21.009 11.2 23.208 9.54998 24.5085 7.60898C26.3085 9.72998 27.2895 12.1495 27.4485 14.869C26.2305 14.809 25.0005 14.779 23.76 14.779Z" fill="black"/>
</svg>
