<svg width="26" height="29" viewBox="0 0 26 29" fill="none" xmlns="http://www.w3.org/2000/svg">
<path d="M10.3895 12.1655C9.57651 12.1655 8.93601 12.878 8.93601 13.748C8.93601 14.615 9.59151 15.3305 10.3895 15.3305C11.201 15.3305 11.8415 14.615 11.8415 13.748C11.858 12.8765 11.201 12.1655 10.3895 12.1655ZM15.5915 12.1655C14.7785 12.1655 14.138 12.878 14.138 13.748C14.138 14.615 14.7935 15.3305 15.5915 15.3305C16.403 15.3305 17.0435 14.615 17.0435 13.748C17.042 12.8765 16.403 12.1655 15.5915 12.1655Z" fill="black"/>
<path d="M22.517 0.208984H3.42051C3.036 0.209968 2.65545 0.286677 2.30058 0.434733C1.94572 0.582788 1.62349 0.799289 1.35229 1.07188C1.0811 1.34446 0.866253 1.6678 0.720018 2.02342C0.573782 2.37903 0.499023 2.75997 0.50001 3.14448V22.4105C0.50001 24.035 1.81101 25.346 3.42051 25.346H19.58L18.8225 22.7075L20.648 24.404L22.3715 26L25.4375 28.709V3.14448C25.4385 2.75997 25.3637 2.37903 25.2175 2.02342C25.0713 1.6678 24.8564 1.34446 24.5852 1.07188C24.314 0.799289 23.9918 0.582788 23.6369 0.434733C23.2821 0.286677 22.9015 0.209968 22.517 0.208984ZM17.015 18.8195C17.015 18.8195 16.502 18.2075 16.076 17.663C17.942 17.135 18.6545 15.968 18.6545 15.968C18.0695 16.352 17.5145 16.625 17.015 16.811C15.1965 17.572 13.194 17.7797 11.258 17.408C10.5427 17.2675 9.84173 17.0616 9.16401 16.793C8.80658 16.6572 8.45922 16.4963 8.12451 16.3115C8.08101 16.28 8.03901 16.268 7.99701 16.2395C7.97454 16.2288 7.9546 16.2135 7.93851 16.1945C7.68201 16.0535 7.53951 15.9545 7.53951 15.9545C7.53951 15.9545 8.22351 17.0945 10.034 17.636C9.60651 18.176 9.07851 18.8195 9.07851 18.8195C5.93001 18.719 4.73451 16.6535 4.73451 16.6535C4.73451 12.065 6.78651 8.34649 6.78651 8.34649C8.83851 6.80598 10.79 6.84948 10.79 6.84948L10.9325 7.02048C8.36751 7.76298 7.18401 8.88799 7.18401 8.88799C7.18401 8.88799 7.49901 8.71698 8.02551 8.47548C9.54951 7.80648 10.76 7.62048 11.2595 7.57698C11.345 7.56348 11.417 7.54848 11.5025 7.54848C13.9733 7.21551 16.4857 7.68508 18.6695 8.88799C18.6695 8.88799 17.543 7.81998 15.1205 7.07898L15.32 6.85098C15.32 6.85098 17.273 6.80748 19.3235 8.34798C19.3235 8.34798 21.3755 12.0665 21.3755 16.655C21.3755 16.655 20.165 18.719 17.015 18.8195Z" fill="black"/>
</svg>
