<svg width="28" height="28" viewBox="0 0 28 28" fill="none" xmlns="http://www.w3.org/2000/svg">
<path d="M26 0.208984H2C1.60218 0.208984 1.22064 0.36702 0.93934 0.648324C0.658035 0.929629 0.5 1.31116 0.5 1.70898V25.709C0.5 26.1068 0.658035 26.4883 0.93934 26.7696C1.22064 27.051 1.60218 27.209 2 27.209H14.9225V16.769H11.4155V12.6815H14.9225V9.68148C14.9225 6.19398 17.0525 4.29348 20.1725 4.29348C21.221 4.29048 22.271 4.34448 23.315 4.45398V8.08398H21.1625C19.4705 8.08398 19.1405 8.89098 19.1405 10.0715V12.674H23.186L22.661 16.7615H19.139V27.209H26C26.3978 27.209 26.7794 27.051 27.0607 26.7696C27.342 26.4883 27.5 26.1068 27.5 25.709V1.70898C27.5 1.31116 27.342 0.929629 27.0607 0.648324C26.7794 0.36702 26.3978 0.208984 26 0.208984Z" fill="black"/>
</svg>
