<svg width="28" height="28" viewBox="0 0 28 28" fill="none" xmlns="http://www.w3.org/2000/svg">
<path d="M13.9984 6.7748C12.1589 6.7748 10.3947 7.50555 9.09394 8.8063C7.79319 10.1071 7.06243 11.8713 7.06243 13.7108C7.06243 15.5503 7.79319 17.3145 9.09394 18.6153C10.3947 19.916 12.1589 20.6468 13.9984 20.6468C15.838 20.6468 17.6022 19.916 18.9029 18.6153C20.2037 17.3145 20.9344 15.5503 20.9344 13.7108C20.9344 11.8713 20.2037 10.1071 18.9029 8.8063C17.6022 7.50555 15.838 6.7748 13.9984 6.7748ZM13.9984 18.2153C12.8034 18.2153 11.6572 17.7406 10.8122 16.8955C9.96717 16.0505 9.49243 14.9044 9.49243 13.7093C9.49243 12.5142 9.96717 11.3681 10.8122 10.5231C11.6572 9.67803 12.8034 9.2033 13.9984 9.2033C15.1935 9.2033 16.3396 9.67803 17.1847 10.5231C18.0297 11.3681 18.5044 12.5142 18.5044 13.7093C18.5044 14.9044 18.0297 16.0505 17.1847 16.8955C16.3396 17.7406 15.1935 18.2153 13.9984 18.2153Z" fill="black"/>
<path d="M21.2089 8.1368C22.102 8.1368 22.8259 7.41284 22.8259 6.5198C22.8259 5.62675 22.102 4.9028 21.2089 4.9028C20.3159 4.9028 19.5919 5.62675 19.5919 6.5198C19.5919 7.41284 20.3159 8.1368 21.2089 8.1368Z" fill="black"/>
<path d="M26.7994 4.8758C26.4522 3.97907 25.9215 3.16472 25.2414 2.48489C24.5613 1.80505 23.7468 1.2747 22.8499 0.927797C21.8004 0.533832 20.6917 0.320809 19.5709 0.297797C18.1264 0.234797 17.6689 0.216797 14.0059 0.216797C10.3429 0.216797 9.87343 0.216797 8.44093 0.297797C7.32101 0.319632 6.21307 0.532699 5.16493 0.927797C4.26783 1.2743 3.45308 1.8045 2.77293 2.48439C2.09279 3.16428 1.56227 3.97883 1.21543 4.8758C0.821387 5.92522 0.608851 7.03405 0.58693 8.1548C0.52243 9.5978 0.50293 10.0553 0.50293 13.7198C0.50293 17.3828 0.50293 17.8493 0.58693 19.2848C0.60943 20.4068 0.82093 21.5138 1.21543 22.5653C1.56325 23.4619 2.09427 24.2762 2.77458 24.956C3.45489 25.6358 4.26953 26.1662 5.16643 26.5133C6.21258 26.9231 7.32099 27.1514 8.44393 27.1883C9.88843 27.2513 10.3459 27.2708 14.0089 27.2708C17.6719 27.2708 18.1414 27.2708 19.5739 27.1883C20.6946 27.1655 21.8033 26.953 22.8529 26.5598C23.7496 26.2121 24.5639 25.6813 25.2439 25.0013C25.9239 24.3212 26.4547 23.5069 26.8024 22.6103C27.1969 21.5603 27.4084 20.4533 27.4309 19.3313C27.4954 17.8883 27.5149 17.4308 27.5149 13.7663C27.5149 10.1018 27.5149 9.6368 27.4309 8.2013C27.4135 7.06471 27.1998 5.93967 26.7994 4.8758ZM24.9724 19.1738C24.9628 20.0383 24.805 20.8947 24.5059 21.7058C24.2807 22.2891 23.9358 22.8188 23.4935 23.2608C23.0513 23.7028 22.5214 24.0474 21.9379 24.2723C21.1358 24.57 20.2885 24.7278 19.4329 24.7388C18.0079 24.8048 17.6059 24.8213 13.9519 24.8213C10.2949 24.8213 9.92143 24.8213 8.46943 24.7388C7.61432 24.7283 6.76742 24.5705 5.96593 24.2723C5.38046 24.0488 4.84843 23.7048 4.40426 23.2627C3.9601 22.8206 3.61368 22.2902 3.38743 21.7058C3.0926 20.9034 2.9349 20.0571 2.92093 19.2023C2.85643 17.7773 2.84143 17.3753 2.84143 13.7213C2.84143 10.0658 2.84143 9.6923 2.92093 8.2388C2.93063 7.37483 3.08841 6.51893 3.38743 5.7083C3.84493 4.5248 4.78243 3.5933 5.96593 3.1403C6.76781 2.84351 7.61447 2.68574 8.46943 2.6738C9.89593 2.6093 10.2964 2.5913 13.9519 2.5913C17.6074 2.5913 17.9824 2.5913 19.4329 2.6738C20.2885 2.68409 21.136 2.8419 21.9379 3.1403C22.5213 3.36571 23.0511 3.7106 23.4934 4.15284C23.9356 4.59508 24.2805 5.1249 24.5059 5.7083C24.8008 6.51072 24.9585 7.35704 24.9724 8.2118C25.0369 9.6383 25.0534 10.0388 25.0534 13.6943C25.0534 17.3483 25.0534 17.7413 24.9889 19.1753H24.9724V19.1738Z" fill="black"/>
</svg>
