<svg width="124" height="125" viewBox="0 0 124 125" fill="none" xmlns="http://www.w3.org/2000/svg">
<path d="M0 62.7094C0 28.4677 27.7584 0.709351 62.0001 0.709351C96.2418 0.709351 124 28.4677 124 62.7094V124.709H0V62.7094Z" fill="#F3AFA8"/>
<path d="M32.1684 98.7652L38.7667 98.7652L38.7667 91.9372L32.1684 91.9372L32.1684 98.7652ZM87.1018 42.7546C87.1018 42.2927 86.74 41.9183 86.2936 41.9183L79.0206 41.9183C78.5743 41.9183 78.2125 42.2927 78.2125 42.7546C78.2125 43.2164 78.5743 43.5908 79.0206 43.5908L85.4855 43.5908L85.4855 50.281C85.4855 50.7428 85.8473 51.1172 86.2936 51.1172C86.74 51.1172 87.1018 50.7428 87.1018 50.281L87.1018 42.7546ZM36.039 95.9425L86.8651 43.3459L85.7222 42.1632L34.8961 94.7599L36.039 95.9425Z" fill="#2D2D2D"/>
</svg>
