<svg width="18" height="17" viewBox="0 0 18 17" fill="none" xmlns="http://www.w3.org/2000/svg">
<path d="M8.10326 1.52646C8.47008 0.783213 9.52992 0.783213 9.89674 1.52646L11.7063 5.19295C11.8519 5.48809 12.1335 5.69266 12.4592 5.73999L16.5054 6.32794C17.3256 6.44712 17.6531 7.45509 17.0596 8.03363L14.1318 10.8876C13.8961 11.1173 13.7885 11.4483 13.8442 11.7727L14.5353 15.8026C14.6754 16.6195 13.818 17.2424 13.0844 16.8568L9.46534 14.9541C9.17402 14.801 8.82598 14.801 8.53466 14.9541L4.91562 16.8568C4.18199 17.2424 3.32456 16.6195 3.46467 15.8026L4.15585 11.7727C4.21148 11.4483 4.10393 11.1173 3.86825 10.8876L0.940385 8.03363C0.346867 7.45509 0.674378 6.44712 1.4946 6.32794L5.54081 5.73999C5.86652 5.69266 6.14808 5.48809 6.29374 5.19295L8.10326 1.52646Z" fill="#2D2D2D"/>
</svg>
